<?xml version="1.0" encoding="UTF-8" standalone="no"?>
<svg
   xmlns:dc="http://purl.org/dc/elements/1.1/"
   xmlns:cc="http://creativecommons.org/ns#"
   xmlns:rdf="http://www.w3.org/1999/02/22-rdf-syntax-ns#"
   xmlns:svg="http://www.w3.org/2000/svg"
   xmlns="http://www.w3.org/2000/svg"
   xmlns:sodipodi="http://sodipodi.sourceforge.net/DTD/sodipodi-0.dtd"
   xmlns:inkscape="http://www.inkscape.org/namespaces/inkscape"
   sodipodi:docname="ayra-logo.svg"
   inkscape:version="1.0.2 (e86c870879, 2021-01-15)"
   id="svg8"
   version="1.1"
   viewBox="0 0 138.86058 38.412982"
   height="38.412983mm"
   width="138.86058mm">
  <defs
     id="defs2" />
  <sodipodi:namedview
     inkscape:snap-page="true"
     inkscape:window-maximized="1"
     inkscape:window-y="25"
     inkscape:window-x="1920"
     inkscape:window-height="1055"
     inkscape:window-width="1920"
     inkscape:lockguides="false"
     inkscape:snap-grids="false"
     inkscape:snap-to-guides="false"
     inkscape:snap-others="false"
     inkscape:object-nodes="false"
     inkscape:snap-nodes="true"
     inkscape:snap-global="true"
     showgrid="false"
     inkscape:document-rotation="0"
     inkscape:current-layer="layer1"
     inkscape:document-units="mm"
     inkscape:cy="586.97659"
     inkscape:cx="424.41457"
     inkscape:zoom="0.66578009"
     inkscape:pageshadow="2"
     inkscape:pageopacity="0"
     borderopacity="1.0"
     bordercolor="#666666"
     pagecolor="#acacac"
     id="base" />
  <metadata
     id="metadata5">
    <rdf:RDF>
      <cc:Work
         rdf:about="">
        <dc:format>image/svg+xml</dc:format>
        <dc:type
           rdf:resource="http://purl.org/dc/dcmitype/StillImage" />
        <dc:title />
      </cc:Work>
    </rdf:RDF>
  </metadata>
  <g
     transform="translate(159.33797,-193.78485)"
     id="layer1"
     inkscape:groupmode="layer"
     inkscape:label="Layer 1">
    <g
       id="g347"
       transform="matrix(0.33280505,0,0,0.33280505,-100.41122,131.10428)">
      <g
         id="g327">
        <path
           id="path1747"
           style="color:#000000;font-style:normal;font-variant:normal;font-weight:normal;font-stretch:normal;font-size:medium;line-height:normal;font-family:sans-serif;font-variant-ligatures:normal;font-variant-position:normal;font-variant-caps:normal;font-variant-numeric:normal;font-variant-alternates:normal;font-feature-settings:normal;text-indent:0;text-align:start;text-decoration:none;text-decoration-line:none;text-decoration-style:solid;text-decoration-color:#000000;letter-spacing:normal;word-spacing:normal;text-transform:none;writing-mode:lr-tb;direction:ltr;text-orientation:mixed;dominant-baseline:auto;baseline-shift:baseline;text-anchor:start;white-space:normal;shape-padding:0;clip-rule:nonzero;display:inline;overflow:visible;visibility:visible;isolation:auto;mix-blend-mode:normal;color-interpolation:sRGB;color-interpolation-filters:linearRGB;solid-color:#000000;solid-opacity:1;vector-effect:none;fill:#2c2626;fill-opacity:1;fill-rule:nonzero;stroke:none;stroke-width:15.2538;stroke-linecap:round;stroke-linejoin:miter;stroke-miterlimit:4;stroke-dasharray:none;stroke-dashoffset:0;stroke-opacity:1;paint-order:fill markers stroke;color-rendering:auto;image-rendering:auto;shape-rendering:auto;text-rendering:auto;enable-background:accumulate"
           d="m -97.002987,188.34127 c -11.419553,0 -20.745443,9.32344 -20.745443,20.74313 v 3.87681 h -7.62178 c -5.98008,0 -10.44296,5.06833 -10.84975,10.64544 l -0.64235,8.83544 v 0.0224 l -1.25285,14.16484 a 4.1970156,4.1970156 0 0 0 4.03806,5.36051 4.1978007,4.1978007 0 0 0 0.14509,0 h 52.754283 c 1.560035,0 2.683157,1.12537 2.683157,2.68542 0,1.56004 -1.123122,2.68384 -2.683157,2.68384 h -71.480953 a 4.1970156,4.1970156 0 1 0 0,8.39223 h 71.482592 c 6.064616,0 11.078245,-5.01151 11.078245,-11.07607 0,-6.06468 -5.013629,-11.07832 -11.078245,-11.07832 h -48.241092 l 0.91901,-10.41535 a 4.1970153,4.1970153 0 0 0 0.0195,-0.27287 l 0.63488,-8.69396 c 0.13791,-1.8895 1.07312,-2.85868 2.4775,-2.85868 h 7.62179 v 9.873 c 0,5.59654 8.39508,5.59654 8.39508,0 v -9.873 h 24.701529 v 9.873 c -0.107793,5.70164 8.49991,5.70164 8.392116,0 v -9.873 h 6.951454 c 1.404287,0 2.339693,0.96907 2.477407,2.85868 l 4.925406,67.52421 c 0.03074,0.42222 -0.09222,0.78603 -0.685185,1.30033 -0.593377,0.51428 -1.632376,0.94997 -2.738694,0.94997 h -11.108677 a 4.1970156,4.1970156 0 1 0 0,8.3929 h 11.108677 c 3.109926,0 6.009387,-1.07237 8.235242,-3.00062 2.225957,-1.9288 3.801566,-4.94233 3.560056,-8.25377 l -4.924587,-67.52218 c -0.406583,-5.57689 -4.869563,-10.64545 -10.849645,-10.64545 h -6.951351 v -3.8767 c 0,-11.41957 -9.323629,-20.74325 -20.743289,-20.74325 z m 0,8.39211 c 6.914976,0 12.35107,5.43608 12.35107,12.35102 v 3.87681 h -24.701423 v -3.87681 c 0,-6.91494 5.43548,-12.35102 12.350353,-12.35102 z m -39.524053,83.886 a 4.1970156,4.1970156 0 0 0 -4.13868,3.94869 l -0.47882,6.56055 c -0.24151,3.31154 1.3342,6.32519 3.56005,8.25389 2.22586,1.92869 5.12768,3.00061 8.2375,3.00061 H -93.824 a 4.1970156,4.1970156 0 1 0 0,-8.39279 h -35.52299 c -1.10611,0 -2.14747,-0.43681 -2.74085,-0.95109 -0.59348,-0.5143 -0.71613,-0.87811 -0.68539,-1.30011 l 0.47882,-6.55998 a 4.1970156,4.1970156 0 0 0 -4.23263,-4.55977 z" />
        <path
           id="path1749"
           style="color:#000000;font-style:normal;font-variant:normal;font-weight:normal;font-stretch:normal;font-size:medium;line-height:normal;font-family:sans-serif;font-variant-ligatures:normal;font-variant-position:normal;font-variant-caps:normal;font-variant-numeric:normal;font-variant-alternates:normal;font-feature-settings:normal;text-indent:0;text-align:start;text-decoration:none;text-decoration-line:none;text-decoration-style:solid;text-decoration-color:#000000;letter-spacing:normal;word-spacing:normal;text-transform:none;writing-mode:lr-tb;direction:ltr;text-orientation:mixed;dominant-baseline:auto;baseline-shift:baseline;text-anchor:start;white-space:normal;shape-padding:0;clip-rule:nonzero;display:inline;overflow:visible;visibility:visible;isolation:auto;mix-blend-mode:normal;color-interpolation:sRGB;color-interpolation-filters:linearRGB;solid-color:#000000;solid-opacity:1;vector-effect:none;fill:#bd2c3d;fill-opacity:1;fill-rule:nonzero;stroke:none;stroke-width:15.2538;stroke-linecap:round;stroke-linejoin:miter;stroke-miterlimit:4;stroke-dasharray:none;stroke-dashoffset:0;stroke-opacity:1;paint-order:fill markers stroke;color-rendering:auto;image-rendering:auto;shape-rendering:auto;text-rendering:auto;enable-background:accumulate"
           d="m -172.87283,257.35949 a 4.1970153,4.1970153 0 1 0 0.10554,8.39291 h 6.1138 a 4.1970153,4.1970153 0 1 0 0,-8.39223 h -6.1138 a 4.1970153,4.1970153 0 0 0 -0.10554,0 z m 24.40909,12.71147 a 4.1975911,4.1975911 0 1 0 0,8.39515 h 64.98915 a 4.1975911,4.1975911 0 1 0 0,-8.39515 z" />
      </g>
      <g
         id="g337"
         transform="matrix(1.1549589,0,0,1.1549589,4.4665195,-26.675309)">
        <g
           aria-label="AYRA"
           id="text1753"
           style="font-style:normal;font-variant:normal;font-weight:normal;font-stretch:normal;font-size:66.638px;line-height:140%;font-family:Baloo;-inkscape-font-specification:Baloo;text-decoration:none;text-decoration-line:none;text-decoration-color:#000000;letter-spacing:13.2292px;word-spacing:1.32292px;fill:#000000;fill-opacity:1;stroke:none;stroke-width:12.593;stroke-linecap:round;stroke-linejoin:round;stroke-opacity:1;paint-order:stroke markers fill;stop-color:#000000">
          <path
             d="m -17.428793,210.36074 q 1.132846,-0.66638 3.398538,-1.26612 2.33233,-0.59974 4.6646597,-0.59974 3.3319,0 5.864144,0.99957 2.59888204,0.93293 3.33190005,2.99871 1.19948405,3.46517 2.59888205,8.06319 1.399398,4.59803 2.798796,9.52924 1.399398,4.86457 2.732158,9.66251 1.33276,4.7313 2.3323302,8.39639 -0.7996562,0.93293 -2.3989682,1.46603 -1.599312,0.59974 -3.798366,0.59974 -1.599312,0 -2.732158,-0.26655 -1.06620805,-0.26655 -1.79922606,-0.79965 -0.66638004,-0.53311 -1.13284604,-1.3994 -0.399828,-0.8663 -0.733018,-1.99914 l -1.199484,-4.59802 H -15.562929 q -0.533104,1.99914 -1.066208,4.13155 -0.533104,2.13242 -1.066208,4.13156 -0.932932,0.33319 -1.99914,0.5331 -0.99957,0.26655 -2.465606,0.26655 -3.398538,0 -5.064488,-1.13284 -1.599312,-1.19949 -1.599312,-3.26526 0,-0.93294 0.266552,-1.86587 0.266552,-0.93293 0.599742,-2.19905 0.466466,-1.79923 1.266122,-4.46475 0.866294,-2.66552 1.865864,-5.73087 0.99957,-3.13198 2.132416,-6.39724 1.132846,-3.26527 2.132416,-6.1307 0.99957,-2.93207 1.799226,-5.19776 0.866294,-2.2657 1.33276,-3.46518 z m 7.9965597,8.5963 q -0.9329317,2.7988 -2.1324157,6.26397 -1.132846,3.39854 -2.065778,6.93036 h 8.2631117 q -0.932932,-3.59846 -1.932502,-6.99699 -0.932932,-3.46518 -1.732588,-6.19734 z"
             style="font-style:normal;font-variant:normal;font-weight:normal;font-stretch:normal;font-family:Baloo;-inkscape-font-specification:Baloo;fill:#000000;stroke:none;stroke-width:12.593"
             id="path16" />
          <path
             d="m 47.178225,249.27733 q -0.733018,0.19992 -2.265692,0.39983 -1.532674,0.19991 -2.99871,0.19991 -3.065348,0 -4.598022,-0.99957 -1.532674,-1.0662 -1.532674,-4.3981 v -8.99613 q -1.66595,-2.46561 -3.598452,-5.46432 -1.932502,-2.99871 -3.798367,-6.1307 -1.865864,-3.13198 -3.465176,-6.13069 -1.599312,-3.06535 -2.598882,-5.59759 0.866294,-1.19949 2.33233,-2.19906 1.532674,-0.99957 3.731728,-0.99957 2.598883,0 4.198195,1.06621 1.66595,1.06621 3.131986,3.99828 l 5.530954,11.12855 h 0.399828 q 0.932932,-2.06578 1.599312,-3.73173 0.733018,-1.73259 1.399398,-3.39854 0.66638,-1.73259 1.399398,-3.53181 0.733018,-1.86587 1.66595,-4.26484 1.199484,-0.59974 2.66552,-0.93293 1.466036,-0.33319 2.798796,-0.33319 2.33233,0 3.931642,1.26612 1.66595,1.19949 1.66595,3.66509 0,0.79966 -0.33319,1.93251 -0.33319,1.13284 -1.532674,3.46517 -1.199484,2.26569 -3.531814,6.19734 -2.265692,3.93164 -6.197334,10.26225 z"
             style="font-style:normal;font-variant:normal;font-weight:normal;font-stretch:normal;font-family:Baloo;-inkscape-font-specification:Baloo;fill:#000000;stroke:none;stroke-width:12.593"
             id="path18" />
          <path
             d="m 89.061723,236.48284 v 12.79449 q -0.733018,0.19992 -2.33233,0.39983 -1.532674,0.19991 -3.065348,0.19991 -1.532674,0 -2.732158,-0.26655 -1.132846,-0.19991 -1.932502,-0.79965 -0.733018,-0.59975 -1.132846,-1.66595 -0.399828,-1.06621 -0.399828,-2.7988 v -31.3865 q 0,-1.3994 0.733018,-2.13241 0.799656,-0.79966 2.132416,-1.26613 2.265692,-0.79965 5.264402,-1.13284 2.99871,-0.39983 6.397248,-0.39983 9.196045,0 13.860705,3.865 4.66466,3.86501 4.66466,10.46217 0,4.13156 -2.13242,7.06363 -2.13241,2.93207 -5.06449,4.53138 2.39897,3.26526 4.7313,6.1307 2.33233,2.86543 3.66509,5.19776 -0.66638,2.33233 -2.4656,3.59845 -1.73259,1.19949 -3.93165,1.19949 -1.46603,0 -2.53224,-0.33319 -1.06621,-0.33319 -1.86586,-0.93293 -0.79966,-0.59975 -1.466039,-1.46604 -0.66638,-0.86629 -1.266122,-1.86586 l -5.597592,-8.99613 z m 4.198194,-8.86286 q 2.532244,0 3.99828,-1.26612 1.466036,-1.33276 1.466036,-3.865 0,-2.53225 -1.66595,-3.79837 -1.599312,-1.33276 -5.131126,-1.33276 -0.99957,0 -1.599312,0.0666 -0.599742,0.0666 -1.33276,0.19991 v 9.9957 z"
             style="font-style:normal;font-variant:normal;font-weight:normal;font-stretch:normal;font-family:Baloo;-inkscape-font-specification:Baloo;fill:#000000;stroke:none;stroke-width:12.593"
             id="path20" />
          <path
             d="m 140.40777,210.36074 q 1.13285,-0.66638 3.39854,-1.26612 2.33233,-0.59974 4.66466,-0.59974 3.3319,0 5.86414,0.99957 2.59888,0.93293 3.3319,2.99871 1.19949,3.46517 2.59888,8.06319 1.3994,4.59803 2.7988,9.52924 1.3994,4.86457 2.73216,9.66251 1.33276,4.7313 2.33233,8.39639 -0.79966,0.93293 -2.39897,1.46603 -1.59931,0.59974 -3.79837,0.59974 -1.59931,0 -2.73215,-0.26655 -1.06621,-0.26655 -1.79923,-0.79965 -0.66638,-0.53311 -1.13285,-1.3994 -0.39982,-0.8663 -0.73301,-1.99914 l -1.19949,-4.59802 h -12.06148 q -0.5331,1.99914 -1.0662,4.13155 -0.53311,2.13242 -1.06621,4.13156 -0.93293,0.33319 -1.99914,0.5331 -0.99957,0.26655 -2.46561,0.26655 -3.39854,0 -5.06449,-1.13284 -1.59931,-1.19949 -1.59931,-3.26526 0,-0.93294 0.26655,-1.86587 0.26656,-0.93293 0.59975,-2.19905 0.46646,-1.79923 1.26612,-4.46475 0.86629,-2.66552 1.86586,-5.73087 0.99957,-3.13198 2.13242,-6.39724 1.13284,-3.26527 2.13241,-6.1307 0.99957,-2.93207 1.79923,-5.19776 0.86629,-2.2657 1.33276,-3.46518 z m 7.99656,8.5963 q -0.93293,2.7988 -2.13242,6.26397 -1.13284,3.39854 -2.06577,6.93036 h 8.26311 q -0.93293,-3.59846 -1.9325,-6.99699 -0.93294,-3.46518 -1.73259,-6.19734 z"
             style="font-style:normal;font-variant:normal;font-weight:normal;font-stretch:normal;font-family:Baloo;-inkscape-font-specification:Baloo;fill:#000000;stroke:none;stroke-width:12.593"
             id="path22" />
        </g>
        <g
           aria-label="Print &amp; Shop"
           id="text331"
           style="font-style:normal;font-variant:normal;font-weight:normal;font-stretch:normal;font-size:32.0459px;line-height:140%;font-family:Baloo;-inkscape-font-specification:Baloo;text-decoration:none;text-decoration-line:none;text-decoration-color:#000000;letter-spacing:1.74192px;fill:#000000;fill-opacity:1;stroke:none;stroke-width:6.05592;stroke-linecap:round;stroke-linejoin:round;stroke-opacity:1;paint-order:stroke markers fill;stop-color:#000000">
          <path
             d="m -20.690011,269.98407 q 1.345928,0 2.050938,-0.60887 0.737056,-0.64092 0.737056,-1.92276 0,-1.21774 -0.769102,-1.85866 -0.737056,-0.67296 -2.179121,-0.67296 -0.512734,0 -0.865239,0.032 -0.320459,0 -0.672964,0.0641 v 4.96711 z m -1.666386,10.28673 q -0.352505,0.0961 -1.121607,0.19228 -0.737055,0.0961 -1.474111,0.0961 -0.737056,0 -1.313882,-0.12819 -0.54478,-0.0961 -0.929331,-0.38455 -0.384551,-0.28841 -0.576826,-0.80115 -0.192275,-0.51273 -0.192275,-1.34592 v -15.09362 q 0,-0.67297 0.352504,-1.02547 0.384551,-0.38455 1.025469,-0.60887 1.089561,-0.38455 2.467534,-0.54478 1.41002,-0.19228 2.820039,-0.19228 4.422334,0 6.761685,1.89071 2.339351,1.89071 2.339351,5.12734 0,1.57025 -0.512735,2.85209 -0.480688,1.24979 -1.474111,2.17912 -0.961377,0.89729 -2.467534,1.41002 -1.474112,0.48069 -3.428911,0.48069 h -2.275259 z"
             style="font-style:normal;font-variant:normal;font-weight:normal;font-stretch:normal;font-family:Baloo;-inkscape-font-specification:Baloo;fill:#000000;stroke:none;stroke-width:6.05592"
             id="path25" />
          <path
             d="m -3.2135884,280.36694 q -0.320459,0.0961 -1.0254688,0.19228 -0.6729638,0.0961 -1.4100195,0.0961 -0.7050098,0 -1.2818359,-0.0961 -0.5447803,-0.0961 -0.9293311,-0.38455 -0.3845508,-0.28842 -0.6088721,-0.76911 -0.1922753,-0.51273 -0.1922753,-1.31388 v -9.61377 q 0,-0.73705 0.2563671,-1.24979 0.2884131,-0.54478 0.8011475,-0.96137 0.5127344,-0.4166 1.24979,-0.73706 0.7691016,-0.3525 1.6343409,-0.60887 0.8652392,-0.25637 1.7945703,-0.38455 0.929331,-0.16023 1.8586621,-0.16023 1.53820311,0 2.4354883,0.60887 0.8972851,0.57683 0.8972851,1.92275 0,0.44865 -0.1281836,0.89729 -0.1281836,0.4166 -0.320459,0.7691 -0.6729638,0 -1.37797359,0.0641 -0.70500976,0.0641 -1.37797363,0.19228 -0.67296388,0.12818 -1.28183598,0.28841 -0.5768261,0.12818 -0.9934228,0.32046 z"
             style="font-style:normal;font-variant:normal;font-weight:normal;font-stretch:normal;font-family:Baloo;-inkscape-font-specification:Baloo;fill:#000000;stroke:none;stroke-width:6.05592"
             id="path27" />
          <path
             d="m 6.123187,260.49848 q 0,-1.21774 0.8011474,-2.05093 0.8331934,-0.8332 2.1791211,-0.8332 1.3459275,0 2.1470755,0.8332 0.833193,0.83319 0.833193,2.05093 0,1.21775 -0.833193,2.05094 -0.801148,0.83319 -2.1470755,0.83319 -1.3459277,0 -2.1791211,-0.83319 -0.8011474,-0.83319 -0.8011474,-2.05094 z m 5.70417,19.86846 q -0.352505,0.0641 -1.057515,0.16023 -0.672964,0.12818 -1.3779734,0.12818 -0.7050098,0 -1.2818359,-0.0961 -0.5447803,-0.0961 -0.9293311,-0.38455 -0.3845508,-0.28842 -0.6088721,-0.76911 -0.1922754,-0.51273 -0.1922754,-1.31388 V 265.049 q 0.3525049,-0.0641 1.0254688,-0.16023 0.7050098,-0.12818 1.4100195,-0.12818 0.7050098,0 1.2497896,0.0961 0.576827,0.0961 0.961377,0.38455 0.384551,0.28841 0.576827,0.80114 0.224321,0.48069 0.224321,1.28184 z"
             style="font-style:normal;font-variant:normal;font-weight:normal;font-stretch:normal;font-family:Baloo;-inkscape-font-specification:Baloo;fill:#000000;stroke:none;stroke-width:6.05592"
             id="path29" />
          <path
             d="m 26.900358,270.52885 q 0,-0.99342 -0.576826,-1.44207 -0.544781,-0.48068 -1.506158,-0.48068 -0.640918,0 -1.281836,0.16023 -0.608872,0.16023 -1.057514,0.48068 v 11.11993 q -0.320459,0.0961 -1.025469,0.19228 -0.672964,0.0961 -1.410019,0.0961 -0.70501,0 -1.281836,-0.0961 -0.544781,-0.0961 -0.929331,-0.38455 -0.384551,-0.28842 -0.608873,-0.76911 -0.192275,-0.51273 -0.192275,-1.31388 v -9.61377 q 0,-0.86524 0.352505,-1.41002 0.384551,-0.54478 1.025469,-0.99342 1.08956,-0.7691 2.723901,-1.24979 1.666387,-0.48069 3.685278,-0.48069 3.621187,0 5.575987,1.6023 1.9548,1.57025 1.9548,4.39028 v 10.03037 q -0.320459,0.0961 -1.025469,0.19228 -0.672964,0.0961 -1.41002,0.0961 -0.705009,0 -1.281836,-0.0961 -0.54478,-0.0961 -0.929331,-0.38455 -0.384551,-0.28842 -0.608872,-0.76911 -0.192275,-0.51273 -0.192275,-1.31388 z"
             style="font-style:normal;font-variant:normal;font-weight:normal;font-stretch:normal;font-family:Baloo;-inkscape-font-specification:Baloo;fill:#000000;stroke:none;stroke-width:6.05592"
             id="path31" />
          <path
             d="m 42.902645,275.04732 q 0,0.8332 0.512735,1.1857 0.54478,0.3525 1.506157,0.3525 0.480688,0 0.993423,-0.0641 0.512734,-0.0961 0.897285,-0.22432 0.288413,0.35251 0.480689,0.80115 0.224321,0.4166 0.224321,1.02547 0,1.21774 -0.929331,1.98684 -0.897285,0.76911 -3.20459,0.76911 -2.820039,0 -4.358242,-1.28184 -1.506158,-1.28184 -1.506158,-4.16597 v -13.71564 q 0.352505,-0.0961 0.993423,-0.19228 0.672964,-0.12818 1.41002,-0.12818 1.410019,0 2.179121,0.51273 0.801147,0.48069 0.801147,2.08299 v 2.05093 h 4.198013 q 0.192276,0.35251 0.352505,0.89729 0.192275,0.51273 0.192275,1.15365 0,1.12161 -0.512734,1.63434 -0.480688,0.48069 -1.313882,0.48069 h -2.916177 z"
             style="font-style:normal;font-variant:normal;font-weight:normal;font-stretch:normal;font-family:Baloo;-inkscape-font-specification:Baloo;fill:#000000;stroke:none;stroke-width:6.05592"
             id="path33" />
          <path
             d="m 73.465225,268.28564 q 0.608872,-0.25637 1.121606,-0.35251 0.54478,-0.12818 1.089561,-0.12818 0.769101,0 1.24979,0.22432 0.480688,0.22432 0.737055,0.64092 0.288414,0.38455 0.384551,0.92933 0.09614,0.54478 0.09614,1.1857 0,2.59572 -1.313882,4.93507 l 2.467534,2.37139 q -0.06409,1.21775 -0.833193,1.98685 -0.769102,0.7691 -1.826616,0.7691 -1.281836,0 -2.49958,-1.21774 l -0.608872,-0.57683 q -1.185699,0.86524 -2.723902,1.34593 -1.506157,0.51273 -3.364819,0.51273 -1.890708,0 -3.332774,-0.51273 -1.442065,-0.48069 -2.435488,-1.34593 -0.993423,-0.86524 -1.506157,-2.01889 -0.512734,-1.1857 -0.512734,-2.56367 0,-1.1857 0.352504,-2.11503 0.352505,-0.92933 0.929331,-1.63434 0.576827,-0.70501 1.281836,-1.1857 0.70501,-0.51274 1.442066,-0.8332 -0.640918,-0.7691 -0.929331,-1.63434 -0.256367,-0.86524 -0.256367,-1.63434 0,-0.99342 0.416596,-1.85866 0.416597,-0.86524 1.185699,-1.50616 0.769101,-0.64092 1.858662,-0.99342 1.121606,-0.3525 2.531626,-0.3525 2.018891,0 2.852085,0.73705 0.833193,0.70501 0.833193,1.82662 0,0.54478 -0.224321,1.05751 -0.192276,0.51274 -0.608872,0.92933 -0.352505,-0.16023 -0.833194,-0.25636 -0.448642,-0.0961 -0.961377,-0.0961 -0.833193,0 -1.377973,0.25637 -0.544781,0.25636 -0.544781,0.92933 0,0.48068 0.416597,0.99342 0.416597,0.48069 1.025469,1.08956 l 4.101875,3.97369 q 0.160229,-0.70501 0.224321,-1.66639 0.09614,-0.96137 0.09614,-2.21116 z m -8.684439,5.83235 q 0,1.12161 0.737056,1.89071 0.769102,0.73705 2.243213,0.73705 0.640918,0 1.345928,-0.16023 0.705009,-0.19227 1.345927,-0.60887 l -4.101875,-4.13392 q -0.769101,0.35251 -1.185698,0.96138 -0.384551,0.60887 -0.384551,1.31388 z"
             style="font-style:normal;font-variant:normal;font-weight:normal;font-stretch:normal;font-family:Baloo;-inkscape-font-specification:Baloo;fill:#000000;stroke:none;stroke-width:6.05592"
             id="path35" />
          <path
             d="m 97.554484,272.67593 q -1.410019,-0.48069 -2.563672,-0.96138 -1.153652,-0.51274 -1.986845,-1.21775 -0.833194,-0.70501 -1.313882,-1.66638 -0.448643,-0.99343 -0.448643,-2.40344 0,-2.72391 2.082984,-4.35825 2.115029,-1.63434 5.896445,-1.63434 1.377969,0 2.563669,0.19228 1.1857,0.19227 2.01889,0.60887 0.86524,0.38455 1.34593,1.02547 0.48069,0.60887 0.48069,1.44206 0,0.8332 -0.38455,1.44207 -0.38455,0.57683 -0.92933,0.99342 -0.70501,-0.44864 -1.89071,-0.7691 -1.1857,-0.3525 -2.595717,-0.3525 -1.442066,0 -2.115029,0.41659 -0.672964,0.38455 -0.672964,0.99343 0,0.48068 0.416596,0.80114 0.416597,0.28842 1.24979,0.54478 l 1.698434,0.54478 q 3.01231,0.96138 4.61461,2.46754 1.63434,1.47411 1.63434,4.03778 0,2.7239 -2.14708,4.42233 -2.14707,1.66639 -6.313038,1.66639 -1.474111,0 -2.755947,-0.25637 -1.24979,-0.22432 -2.211167,-0.67296 -0.929331,-0.48069 -1.474112,-1.15365 -0.512734,-0.70501 -0.512734,-1.6023 0,-0.92933 0.54478,-1.57025 0.544781,-0.67296 1.185699,-1.02546 0.897285,0.705 2.179121,1.21774 1.313882,0.51273 2.852085,0.51273 1.570249,0 2.211163,-0.48068 0.64092,-0.48069 0.64092,-1.12161 0,-0.64092 -0.51273,-0.96138 -0.512737,-0.3525 -1.442068,-0.67296 z"
             style="font-style:normal;font-variant:normal;font-weight:normal;font-stretch:normal;font-family:Baloo;-inkscape-font-specification:Baloo;fill:#000000;stroke:none;stroke-width:6.05592"
             id="path37" />
          <path
             d="m 126.40719,280.36694 q -0.32045,0.0961 -1.02546,0.19228 -0.67297,0.0961 -1.41002,0.0961 -0.70501,0 -1.28184,-0.0961 -0.54478,-0.0961 -0.92933,-0.38455 -0.38455,-0.28842 -0.60887,-0.76911 -0.19228,-0.51273 -0.19228,-1.31388 v -7.11419 q 0,-1.31388 -0.67296,-1.82661 -0.64092,-0.54478 -1.6023,-0.54478 -0.64092,0 -1.21774,0.16023 -0.57683,0.16023 -0.92933,0.38455 v 11.21606 q -0.32046,0.0961 -1.02547,0.19228 -0.67297,0.0961 -1.41002,0.0961 -0.70501,0 -1.28184,-0.0961 -0.54478,-0.0961 -0.92933,-0.38455 -0.38455,-0.28842 -0.60887,-0.76911 -0.19228,-0.51273 -0.19228,-1.31388 v -18.58662 q 0.35251,-0.0641 1.02547,-0.16023 0.70501,-0.12818 1.41002,-0.12818 0.70501,0 1.24979,0.0961 0.57683,0.0961 0.96138,0.38455 0.38455,0.28841 0.57683,0.80114 0.22432,0.48069 0.22432,1.28184 v 3.1405 q 0.41659,-0.16023 1.24979,-0.35251 0.86524,-0.22432 1.89071,-0.22432 3.17254,0 4.93506,1.6023 1.79457,1.57025 1.79457,4.71074 z"
             style="font-style:normal;font-variant:normal;font-weight:normal;font-stretch:normal;font-family:Baloo;-inkscape-font-specification:Baloo;fill:#000000;stroke:none;stroke-width:6.05592"
             id="path39" />
          <path
             d="m 147.63299,272.61183 q 0,1.98685 -0.60887,3.5571 -0.60888,1.5382 -1.73048,2.59572 -1.08956,1.05751 -2.62777,1.60229 -1.5382,0.54478 -3.42891,0.54478 -1.8907,0 -3.42891,-0.57682 -1.5382,-0.57683 -2.65981,-1.63435 -1.08956,-1.08956 -1.69843,-2.62776 -0.60887,-1.5382 -0.60887,-3.46096 0,-1.8907 0.60887,-3.42891 0.60887,-1.5382 1.69843,-2.59572 1.12161,-1.08956 2.65981,-1.66638 1.53821,-0.57683 3.42891,-0.57683 1.89071,0 3.42891,0.60887 1.53821,0.57683 2.62777,1.66639 1.1216,1.05752 1.73048,2.59572 0.60887,1.5382 0.60887,3.39686 z m -11.21607,0 q 0,1.9548 0.73706,3.01232 0.7691,1.02547 2.11503,1.02547 1.34593,0 2.05094,-1.05752 0.73705,-1.05751 0.73705,-2.98027 0,-1.92275 -0.73705,-2.94822 -0.73706,-1.05751 -2.08299,-1.05751 -1.34592,0 -2.08298,1.05751 -0.73706,1.02547 -0.73706,2.94822 z"
             style="font-style:normal;font-variant:normal;font-weight:normal;font-stretch:normal;font-family:Baloo;-inkscape-font-specification:Baloo;fill:#000000;stroke:none;stroke-width:6.05592"
             id="path41" />
          <path
             d="m 159.1809,264.34399 q 1.92276,0 3.5571,0.51274 1.66639,0.48068 2.85208,1.50615 1.1857,1.02547 1.85867,2.59572 0.67296,1.5382 0.67296,3.68528 0,2.05094 -0.57683,3.58914 -0.57682,1.5382 -1.63434,2.59572 -1.05751,1.02547 -2.56367,1.5382 -1.47411,0.51274 -3.30073,0.51274 -1.37797,0 -2.56367,-0.4166 v 5.31962 q -0.32046,0.0961 -1.02547,0.19227 -0.70501,0.12819 -1.44206,0.12819 -0.70501,0 -1.28184,-0.0961 -0.54478,-0.0961 -0.92933,-0.38455 -0.38455,-0.28841 -0.57683,-0.80115 -0.19227,-0.48069 -0.19227,-1.28184 v -15.38203 q 0,-0.86524 0.3525,-1.41002 0.38455,-0.54478 1.02547,-0.99342 0.99343,-0.64092 2.46754,-1.02547 1.47411,-0.38455 3.30072,-0.38455 z m 0.0641,12.24153 q 3.30072,0 3.30072,-3.94164 0,-2.05094 -0.83319,-3.04436 -0.80115,-0.99342 -2.33935,-0.99342 -0.60887,0 -1.08956,0.16023 -0.48069,0.12818 -0.83319,0.32045 v 7.0501 q 0.38455,0.19228 0.83319,0.32046 0.44864,0.12818 0.96138,0.12818 z"
             style="font-style:normal;font-variant:normal;font-weight:normal;font-stretch:normal;font-family:Baloo;-inkscape-font-specification:Baloo;fill:#000000;stroke:none;stroke-width:6.05592"
             id="path43" />
        </g>
      </g>
    </g>
  </g>
</svg>
